<svg width="75" height="25" viewBox="0 0 75 25" fill="none" xmlns="http://www.w3.org/2000/svg">
<g clip-path="url(#clip0_30_181)">
<path d="M8.04331 22.3097C7.83658 22.1248 7.68925 21.9215 7.60132 21.6998C7.52051 21.4702 7.5694 21.2635 7.74799 21.0797L7.85464 20.9605C7.01218 20.0784 6.04628 19.1503 4.95695 18.1762L2.97833 16.4283L2.93693 16.4986C2.86208 16.6463 2.72634 16.7181 2.5297 16.714C2.33222 16.6948 2.15396 16.6141 1.99494 16.4719C1.7723 16.2728 1.6463 16.0457 1.61694 15.7905C1.58674 15.5202 1.64354 15.1847 1.78734 14.7838C1.94995 14.3139 2.17365 13.8557 2.45844 13.4092C2.73527 12.9556 3.03367 12.5499 3.35362 12.1921C3.95087 11.5242 4.576 11.0171 5.22899 10.671C5.88114 10.3097 6.5141 10.1459 7.12787 10.1796C7.74081 10.1983 8.28979 10.4245 8.77482 10.8582C9.20419 11.2421 9.48173 11.7479 9.60743 12.3754C9.73229 12.9879 9.59483 13.6377 9.19506 14.3248C9.85807 13.8874 10.4628 13.6912 11.0092 13.7362C11.5548 13.7662 12.0303 13.9624 12.4358 14.3251C12.9447 14.7801 13.2536 15.3068 13.3626 15.905C13.4787 16.4953 13.4184 17.1068 13.1818 17.7395C12.9452 18.3721 12.5673 18.9787 12.0483 19.5591C11.7354 19.909 11.3174 20.3365 10.7942 20.8416C10.9365 21.2265 10.8122 21.6376 10.4211 22.0749C10.094 22.4407 9.72653 22.5556 9.31857 22.4198L9.26525 22.4794C9.10882 22.6543 8.91994 22.7215 8.69861 22.681C8.48438 22.6326 8.26595 22.5088 8.04331 22.3097ZM9.47771 19.3854C9.77886 19.0966 10.0823 18.7813 10.388 18.4394C10.8218 17.9544 11.0831 17.4941 11.1721 17.0585C11.2611 16.6229 11.1267 16.2452 10.7689 15.9252C10.3792 15.5768 9.98802 15.4703 9.5952 15.6055C9.20154 15.7257 8.85184 15.9568 8.54611 16.2987C8.26881 16.6088 8.02997 16.7959 7.82959 16.8599C7.62125 16.9169 7.38191 16.8245 7.11156 16.5827C6.85712 16.3552 6.74221 16.1237 6.76682 15.8881C6.79855 15.6446 6.93528 15.3877 7.17703 15.1174C8.03735 14.1552 8.10573 13.3507 7.38216 12.7036C7.04025 12.3979 6.64632 12.3104 6.20036 12.441C5.74645 12.5646 5.25643 12.9206 4.73028 13.509C4.5383 13.7237 4.343 14.0141 4.14438 14.3802C4.77085 14.9118 5.5572 15.6006 6.50341 16.4467C7.02024 16.9089 7.45883 17.3226 7.81916 17.6877C8.17865 18.0378 8.7315 18.6037 9.47771 19.3854Z" fill="black"/>
<path d="M21.1077 9.73867C21.3065 10.0546 21.4898 10.2859 21.6576 10.4323C21.8254 10.5788 21.975 10.6863 22.1063 10.7549C22.2377 10.8235 22.3091 10.8668 22.3204 10.8848C22.4625 11.1105 22.496 11.3541 22.4211 11.6155C22.3495 11.8622 22.1737 12.0736 21.8939 12.2497C21.7223 12.3577 21.4759 12.3867 21.1547 12.3368C20.8368 12.2722 20.5752 12.1469 20.37 11.961C20.4346 12.7647 20.0336 13.4393 19.1669 13.9847C18.3725 14.4846 17.578 14.5939 16.7834 14.3125C15.9978 14.0255 15.3323 13.4487 14.7869 12.582L12.7758 9.38611C12.6451 9.17847 12.6303 8.95465 12.7313 8.71463C12.8357 8.45991 13.0233 8.24733 13.2941 8.0769C13.565 7.90646 13.8378 7.8293 14.1126 7.84542C14.3907 7.84682 14.5952 7.95135 14.7258 8.15899L16.7199 11.3278C16.9642 11.716 17.2506 12.0209 17.5792 12.2427C17.9078 12.4644 18.212 12.4872 18.4919 12.3111C18.8439 12.0895 19.0018 11.7696 18.9655 11.3514C18.9382 10.9275 18.6745 10.3183 18.1746 9.52383L16.5981 7.0186C16.4447 6.77484 16.4083 6.52677 16.489 6.27439C16.5786 6.01632 16.7679 5.79639 17.0568 5.61459C17.3547 5.42711 17.6394 5.34878 17.9108 5.37961C18.1913 5.40475 18.4083 5.5392 18.5617 5.78295L21.1077 9.73867Z" fill="black"/>
<path d="M29.2633 14.1334C28.9162 14.2386 28.601 14.2283 28.3176 14.1024C28.0475 13.9836 27.8707 13.7864 27.7872 13.5108C27.7501 13.3883 27.7369 13.253 27.7477 13.1048L27.8218 11.143L27.8996 9.41406C27.3013 9.20531 26.6795 8.80863 26.0342 8.22403C25.3858 7.62922 24.7929 6.97856 24.2555 6.27207C23.7252 5.55228 23.3177 4.90672 23.0331 4.33539C22.9817 4.2395 22.9406 4.14051 22.9097 4.03843C22.823 3.75261 22.855 3.50884 23.0056 3.30714C23.1563 3.10544 23.3796 2.95972 23.6756 2.86999C23.9717 2.78025 24.1995 2.77807 24.3591 2.86343C24.5259 2.9355 24.6621 3.07252 24.768 3.27452C25.3051 4.23745 25.8674 5.08129 26.4549 5.80602C27.0393 6.52056 27.5539 6.94972 27.9987 7.09353C28.0064 6.56734 27.9951 5.99676 27.9647 5.38179C27.9446 4.76373 27.9291 4.34489 27.9182 4.12525C27.8758 3.21301 27.8489 2.59139 27.8378 2.2604C27.831 2.01726 27.88 1.82964 27.9848 1.69754C28.0866 1.55523 28.2651 1.4454 28.5203 1.36805C28.8673 1.26284 29.1779 1.25787 29.452 1.35312C29.723 1.43817 29.8941 1.59808 29.9652 1.83287C29.9869 1.90432 29.9988 1.96201 30.001 2.00594C30.0939 3.78341 30.1289 5.82923 30.1059 8.14342C30.0882 10.8795 30.0435 12.5706 29.9717 13.2165C29.9418 13.4485 29.8825 13.6392 29.7941 13.7886C29.7056 13.938 29.5287 14.053 29.2633 14.1334Z" fill="black"/>
<path d="M48.9174 1.74538C49.8389 1.92431 50.4879 2.38718 50.8644 3.13399C51.2535 3.87235 51.326 4.8698 51.082 6.12633L50.377 9.67298C50.3343 9.89287 50.1918 10.0391 49.9496 10.1115C49.7178 10.1861 49.4448 10.1928 49.1307 10.1318C48.827 10.0729 48.5649 9.96763 48.3444 9.81615C48.1344 9.66671 48.0477 9.49775 48.0843 9.30927L48.8076 5.66838C48.956 4.904 48.9759 4.3537 48.8674 4.01751C48.7588 3.68132 48.5265 3.47865 48.1705 3.40952C47.8668 3.35056 47.5996 3.43991 47.3687 3.6776C47.1378 3.91528 46.8833 4.41459 46.6052 5.17552C46.4465 5.60107 46.3153 6.08086 46.2116 6.61488L45.8338 8.64409C45.781 8.91634 45.6356 9.10542 45.3977 9.21135C45.1723 9.30885 44.8869 9.32404 44.5413 9.25694C44.1853 9.18781 43.9168 9.05962 43.7359 8.87235C43.5654 8.68713 43.5055 8.46362 43.5564 8.20185C43.9793 6.02386 44.2773 4.32145 44.4503 3.0946C44.4642 2.96692 44.4552 2.84563 44.4232 2.73076C44.4037 2.60744 44.3716 2.49257 44.3271 2.38613C44.2826 2.27969 44.2497 2.19724 44.2284 2.13878C44.188 2.0114 44.1789 1.89012 44.2013 1.77494C44.244 1.55505 44.4093 1.37526 44.6972 1.23558C44.9976 1.08746 45.2682 1.03678 45.5091 1.08355C45.6243 1.10592 45.7271 1.16391 45.8176 1.25754C45.9185 1.35321 46.0208 1.49803 46.1244 1.692C46.2111 1.86096 46.2694 2.00811 46.2994 2.13346C46.3294 2.25881 46.3302 2.39478 46.3017 2.54137L46.2743 2.68273C46.54 2.32143 46.8868 2.04649 47.3146 1.85791C47.7549 1.6609 48.2891 1.62339 48.9174 1.74538Z" fill="black"/>
<path d="M55.8913 13.2536C54.6843 12.6385 53.8843 11.8357 53.4912 10.8452C53.1124 9.85005 53.2136 8.78225 53.7948 7.6418C54.1725 6.90051 54.6659 6.31991 55.275 5.90001C55.8841 5.48011 56.556 5.25389 57.2909 5.22136C58.0353 5.19367 58.7972 5.3784 59.5765 5.77554C60.3653 6.17753 60.9743 6.6974 61.4035 7.33515C61.8328 7.97291 62.0564 8.67349 62.0744 9.43689C62.1067 10.1956 61.9292 10.9552 61.5417 11.7155C60.9751 12.8274 60.1874 13.5155 59.1789 13.7796C58.1751 14.0343 57.0793 13.859 55.8913 13.2536ZM56.6692 11.6567C57.2489 11.9521 57.7779 12.0182 58.2562 11.8549C58.7489 11.6869 59.1599 11.2798 59.4892 10.6335C59.8137 9.99679 59.9329 9.37517 59.8469 8.76866C59.7753 8.1575 59.4401 7.69936 58.8414 7.39424C58.2807 7.10849 57.7299 7.08518 57.189 7.32433C56.6481 7.56348 56.2033 8.02519 55.8546 8.70946C55.5155 9.37472 55.4204 9.96075 55.5692 10.4676C55.7228 10.9649 56.0895 11.3612 56.6692 11.6567Z" fill="black"/>
<path d="M63.762 19.0188C63.442 18.7052 63.2941 18.2542 63.3182 17.6656C63.3574 17.0769 63.5951 16.3541 64.0313 15.4972C64.3716 14.8451 64.8093 14.1315 65.3444 13.3567C65.8796 12.5818 66.3002 12.0382 66.6062 11.7258C66.9272 11.3981 67.2122 11.2443 67.4614 11.2644C67.7181 11.2919 67.9646 11.4214 68.2008 11.6528C68.4598 11.9066 68.6094 12.1502 68.6495 12.3836C68.6971 12.6094 68.6278 12.8402 68.4417 13.0759C68.0916 13.5095 67.7603 13.9315 67.4477 14.342C67.1502 14.7524 66.8194 15.2272 66.4554 15.7665C65.8608 16.6325 65.5902 17.0916 65.6436 17.1439C65.6817 17.1812 65.8845 17.0962 66.2519 16.8887C66.6269 16.6737 67.1666 16.3438 67.871 15.8991L68.568 15.462C68.8828 15.2626 69.1721 15.1578 69.436 15.1476C69.7073 15.1297 69.9535 15.229 70.1745 15.4455C70.3878 15.6545 70.4959 15.8947 70.4987 16.1663C70.5089 16.4301 70.4179 16.7441 70.2255 17.1081C69.1672 19.0877 68.6838 20.1223 68.7752 20.2118C68.8057 20.2417 68.922 20.1839 69.1242 20.0385C69.3338 19.8855 69.6893 19.6141 70.1907 19.2243C71.2531 18.3837 72.057 17.7078 72.6024 17.1969C72.819 16.991 73.0483 16.9094 73.2901 16.9522C73.5393 16.9874 73.7897 17.1281 74.0412 17.3744C74.3231 17.6506 74.4542 17.9284 74.4344 18.2077C74.4221 18.4793 74.2517 18.7828 73.9233 19.1181C73.6247 19.4228 73.1348 19.8314 72.4537 20.3438C71.7802 20.8636 71.1286 21.3153 70.4989 21.6989C69.7418 22.1518 69.0621 22.4416 68.46 22.5685C67.8729 22.6952 67.3889 22.5719 67.0079 22.1987C66.5965 21.7956 66.4849 21.2159 66.6733 20.4597C66.8767 19.7033 67.3908 18.7137 68.2155 17.4908C67.0855 18.3699 66.1599 18.9413 65.4385 19.2052C64.7247 19.4765 64.1659 19.4144 63.762 19.0188Z" fill="black"/>
</g>
<defs>
<clipPath id="clip0_30_181">
<rect width="75" height="25" fill="white"/>
</clipPath>
</defs>
</svg>
